# xmcd CD database file
#
# Track frame offsets:
#	150
#	18162
#	36330
#	56668
#	75640
#	95698
#	116190
#	135938
#	150078
#
# Disc length: 2271 seconds
#
# Revision: 0
# Processed by: cddbd v1.5.1PL0 Copyright (c) Steve Scherf et al.
# Submitted via: CDex 1.51
#
DISCID=6508dd09
DTITLE=Son de Cali - Creciendo
DYEAR=2004
DGENRE=Salsa
TTITLE0=Ta Loca
TTITLE1=Por haberme Alejado
TTITLE2=La Sospecha
TTITLE3=Que Falto
TTITLE4=Vengo
TTITLE5=Ay Ay Ay
TTITLE6=Vida Consentida (Versión Salsa)
TTITLE7=Vida Consentida (Versión Bolero)
TTITLE8=Lo Que Te Sobre
EXTD=YEAR: 2004
EXTT0=
EXTT1=
EXTT2=
EXTT3=
EXTT4=
EXTT5=
EXTT6=
EXTT7=
EXTT8=
PLAYORDER=
